<?xml version="1.0" encoding="utf-8"?>
<!-- Generator: Adobe Illustrator 24.0.1, SVG Export Plug-In . SVG Version: 6.00 Build 0)  -->
<svg version="1.1" id="mouse" xmlns="http://www.w3.org/2000/svg" xmlns:xlink="http://www.w3.org/1999/xlink" x="0px" y="0px"
	 viewBox="0 0 93.9 94" style="enable-background:new 0 0 93.9 94;" xml:space="preserve">
<style type="text/css">
	.st0{fill-rule:evenodd;clip-rule:evenodd;fill:#B25414;}
	.st1{fill:#663B1A;}
	.st2{fill:#E5A35C;}
	.st3{fill:#E88643;}
	.st4{fill:#FFFAEB;}
	.st5{fill-rule:evenodd;clip-rule:evenodd;fill:#FFFAEB;}
</style>
<path id="body_2_" class="st0" d="M52.2,58.3c-0.1-0.2-0.1-0.5-0.1-0.7c-0.2-2.1-2.1-3.8-4.2-3.8l-3.4,0.1c-2.2,0-3.9,1.7-4.1,3.8
	c0,0.3-0.1,0.5-0.1,0.8l-7.9,25.2c-0.7,2.3-0.2,0.8-1,3.1c-0.4,1.2,0,2.6,1.1,3.4l2,1.5c0.1,0.1,0.2,0.2,0.3,0.2
	c3.5,2,7.4,2,11.2,1.9c3.9-0.1,7.9-0.2,11.3-2.5l2.7-1.7c1.2-0.8,1.7-2.2,1.2-3.5L52.2,58.3z"/>
<circle id="ear-back" class="st1" cx="64.7" cy="22.5" r="15.2"/>
<path id="head" class="st0" d="M59.5,31.9l2,0.3c1.3,0.2,2.5-0.7,2.7-2s-0.7-2.5-2-2.7l-7-1.2l0.7-0.4c1.2-0.6,1.6-2.1,1-3.2l0,0
	c-0.6-1.2-2.1-1.6-3.2-1l-6.2,3.4c-1.3,0-2.7,0.1-4.1,0.6c0.2-1,0.3-2,0.3-3.1c0-8.4-6.8-15.2-15.2-15.2s-15.2,6.8-15.2,15.2
	S20,37.7,28.4,37.7c0.5,0,1,0,1.5-0.1c-1.8,4.1-2.1,9.1,0,14.7c5,13.3,20,12.4,20,12.4l30-13.9L59.5,31.9z"/>
<circle id="ear-front" class="st2" cx="28.3" cy="22.5" r="11.4"/>
<circle id="cheek" class="st3" cx="38.5" cy="50.4" r="5.1"/>
<circle id="nose" cx="76.9" cy="48.5" r="3.8"/>
<circle id="eye-left" class="st4" cx="43.2" cy="44.9" r="5.6"/>
<path id="eye-right" class="st5" d="M55.7,39.4c3,0,5.4,2.5,5.4,5.6c0,3-2.5,5.5-5.6,5.4c-3,0-5.4-2.5-5.4-5.5
	C50.2,41.8,52.7,39.4,55.7,39.4L55.7,39.4z"/>
<circle id="pupil-right" cx="55.8" cy="44.9" r="3.8"/>
<circle id="pupil-left" cx="43.2" cy="44.9" r="3.8"/>
</svg>
